<svg id="Layer_2" data-name="Layer 2" xmlns="http://www.w3.org/2000/svg" viewBox="0 0 13 14"><title>portal2</title><path d="M.19,14A.19.19,0,0,1,0,13.81V.19A.19.19,0,0,1,.19,0H8.1a.19.19,0,0,1,.19.19V3.51h4.48a.19.19,0,0,1,.19.19v10.1a.19.19,0,0,1-.19.19Zm.19-.38H7.9V.39H.39Zm7.9,0h4.29V3.9H8.29Z"/><path d="M9.5,5.35a.19.19,0,0,1-.19-.19A.19.19,0,0,1,9.5,5h1.87a.19.19,0,1,1,0,.39Z"/><path d="M9.5,6.79a.19.19,0,1,1,0-.39h1.87a.19.19,0,1,1,0,.39Z"/><path d="M9.5,8.23a.19.19,0,1,1,0-.39h1.87a.19.19,0,1,1,0,.39Z"/><path d="M9.5,9.67a.19.19,0,1,1,0-.39h1.87a.19.19,0,1,1,0,.39Z"/><path d="M9.5,11.11a.19.19,0,0,1-.19-.19.19.19,0,0,1,.19-.19h1.87a.19.19,0,0,1,0,.39Z"/><path d="M9.5,12.55a.19.19,0,0,1,0-.39h1.87a.19.19,0,1,1,0,.39Z"/><path d="M1.81,2.62a.19.19,0,0,1-.19-.19V1.8A.19.19,0,0,1,2,1.8v.63A.19.19,0,0,1,1.81,2.62Z"/><path d="M3.37,2.62a.19.19,0,0,1-.19-.19V1.8a.19.19,0,0,1,.39,0v.63A.19.19,0,0,1,3.37,2.62Z"/><path d="M4.92,2.62a.19.19,0,0,1-.19-.19V1.8a.19.19,0,1,1,.39,0v.63A.19.19,0,0,1,4.92,2.62Z"/><path d="M6.48,2.62a.19.19,0,0,1-.19-.19V1.8a.19.19,0,0,1,.39,0v.63A.19.19,0,0,1,6.48,2.62Z"/><path d="M1.81,4.59a.19.19,0,0,1-.19-.19V3.76a.19.19,0,1,1,.39,0v.64A.19.19,0,0,1,1.81,4.59Z"/><path d="M3.37,4.59a.19.19,0,0,1-.19-.19V3.76a.19.19,0,1,1,.39,0v.64A.19.19,0,0,1,3.37,4.59Z"/><path d="M4.92,4.59a.2.2,0,0,1-.19-.19V3.76a.19.19,0,1,1,.39,0v.64A.19.19,0,0,1,4.92,4.59Z"/><path d="M6.48,4.59a.19.19,0,0,1-.19-.19V3.76a.19.19,0,1,1,.39,0v.64A.19.19,0,0,1,6.48,4.59Z"/><path d="M1.81,6.55a.19.19,0,0,1-.19-.19V5.72a.19.19,0,0,1,.39,0v.63A.19.19,0,0,1,1.81,6.55Z"/><path d="M3.37,6.55a.19.19,0,0,1-.19-.19V5.72a.19.19,0,0,1,.39,0v.63A.19.19,0,0,1,3.37,6.55Z"/><path d="M4.92,6.55a.19.19,0,0,1-.19-.19V5.72a.19.19,0,0,1,.39,0v.63A.19.19,0,0,1,4.92,6.55Z"/><path d="M6.48,6.55a.19.19,0,0,1-.19-.19V5.72a.19.19,0,0,1,.39,0v.63A.19.19,0,0,1,6.48,6.55Z"/><path d="M1.81,8.51a.19.19,0,0,1-.19-.19V7.68a.19.19,0,0,1,.39,0v.63A.19.19,0,0,1,1.81,8.51Z"/><path d="M3.37,8.51a.19.19,0,0,1-.19-.19V7.68a.19.19,0,0,1,.39,0v.63A.19.19,0,0,1,3.37,8.51Z"/><path d="M4.92,8.51a.2.2,0,0,1-.19-.19V7.68a.19.19,0,1,1,.39,0v.63A.19.19,0,0,1,4.92,8.51Z"/><path d="M6.48,8.51a.19.19,0,0,1-.19-.19V7.68a.19.19,0,0,1,.39,0v.63A.19.19,0,0,1,6.48,8.51Z"/><path d="M1.81,10.47a.19.19,0,0,1-.19-.19V9.64a.19.19,0,0,1,.39,0v.63A.19.19,0,0,1,1.81,10.47Z"/><path d="M3.37,10.47a.19.19,0,0,1-.19-.19V9.64a.19.19,0,0,1,.39,0v.63A.19.19,0,0,1,3.37,10.47Z"/><path d="M4.92,10.47a.19.19,0,0,1-.19-.19V9.64a.19.19,0,0,1,.39,0v.63A.19.19,0,0,1,4.92,10.47Z"/><path d="M6.48,10.47a.19.19,0,0,1-.19-.19V9.64a.19.19,0,0,1,.39,0v.63A.19.19,0,0,1,6.48,10.47Z"/><path d="M1.81,12.44a.19.19,0,0,1-.19-.19v-.64a.19.19,0,0,1,.39,0v.64A.19.19,0,0,1,1.81,12.44Z"/><path d="M3.37,12.44a.19.19,0,0,1-.19-.19v-.64a.19.19,0,0,1,.39,0v.64A.19.19,0,0,1,3.37,12.44Z"/><path d="M4.92,12.44a.2.2,0,0,1-.19-.19v-.64a.19.19,0,1,1,.39,0v.64A.19.19,0,0,1,4.92,12.44Z"/><path d="M6.48,12.44a.19.19,0,0,1-.19-.19v-.64a.19.19,0,0,1,.39,0v.64A.19.19,0,0,1,6.48,12.44Z"/></svg>