<svg id="Layer_2" data-name="Layer 2" xmlns="http://www.w3.org/2000/svg" viewBox="0 0 13 14"><title>portal2</title><path d="M10.47,9.55a.16.16,0,0,1-.11,0L8,7.28A.16.16,0,0,1,8.09,7a.15.15,0,0,1,.11,0l2.38,2.23a.16.16,0,0,1,0,.22A.16.16,0,0,1,10.47,9.55Z"/><path d="M2.53,9.55a.16.16,0,0,1-.16-.16.16.16,0,0,1,0-.11L4.8,7.05a.16.16,0,0,1,.11,0,.15.15,0,0,1,.11,0,.16.16,0,0,1,0,.22L2.64,9.51A.15.15,0,0,1,2.53,9.55Z"/><path d="M1.13,11.63a1,1,0,0,1-1-1v-7a1,1,0,0,1,1-1H11.87a1,1,0,0,1,1,1v7a1,1,0,0,1-1,1Zm0-8.69a.67.67,0,0,0-.67.67v7a.67.67,0,0,0,.67.67H11.87a.67.67,0,0,0,.67-.67v-7a.67.67,0,0,0-.67-.67Z"/><path d="M6.5,8.11a1.1,1.1,0,0,1-.73-.26L.47,3.22a.15.15,0,0,1-.05-.11A.16.16,0,0,1,.46,3a.15.15,0,0,1,.12-.05A.16.16,0,0,1,.68,3L6,7.61a.82.82,0,0,0,1,0L12.32,3a.16.16,0,0,1,.1,0,.16.16,0,0,1,.12.05.16.16,0,0,1,0,.22L7.23,7.85A1.1,1.1,0,0,1,6.5,8.11Z"/></svg>