<svg id="Layer_2" data-name="Layer 2" xmlns="http://www.w3.org/2000/svg" viewBox="0 0 45.92 46"><defs><style>.cls-1{fill:#964c36;}</style></defs><title>portal</title><path class="cls-1" d="M34.2,46H11.74A11.74,11.74,0,0,1,0,34.28V11.82A11.73,11.73,0,0,1,11.74.1H34.2A11.73,11.73,0,0,1,45.92,11.82V34.28A11.74,11.74,0,0,1,34.2,46h0ZM11.74,2.72a9.11,9.11,0,0,0-9.09,9.1V34.28a9.1,9.1,0,0,0,9.09,9.1H34.2a9.11,9.11,0,0,0,9.09-9.1V11.82A9.1,9.1,0,0,0,34.2,2.73H11.74Zm0,0"/><path class="cls-1" d="M44.61,17.33H28.45a1.31,1.31,0,1,1,0-2.63H44.61a1.31,1.31,0,1,1,0,2.63h0Zm0,0"/><path class="cls-1" d="M17.16,17.33H1.34a1.31,1.31,0,1,1,0-2.63H17.16a1.31,1.31,0,1,1,0,2.63h0Zm0,0"/><path class="cls-1" d="M23,33.28A10.23,10.23,0,1,1,33.2,23,10.24,10.24,0,0,1,23,33.28h0Zm0-17.84a7.61,7.61,0,1,0,7.6,7.61A7.62,7.62,0,0,0,23,15.44h0Zm0,0"/><path class="cls-1" d="M37.2,13.09H32.47A1.05,1.05,0,0,1,31.42,12V7.31a1.05,1.05,0,0,1,1.05-1.05H37.2a1.05,1.05,0,0,1,1.05,1.05V12a1.05,1.05,0,0,1-1.05,1.05h0Zm-4-1.77"/></svg>