<svg id="Layer_2" data-name="Layer 2" xmlns="http://www.w3.org/2000/svg" viewBox="0 0 45.92 46"><defs><style>.cls-1{fill:#964c36;}</style></defs><title>portal</title><path class="cls-1" d="M42.54,11.65a22.51,22.51,0,0,0-8.23-8.23A22.11,22.11,0,0,0,23,.39a22.11,22.11,0,0,0-11.35,3,22.5,22.5,0,0,0-8.23,8.23A22.12,22.12,0,0,0,.35,23,21.92,21.92,0,0,0,4.09,35.45a22.55,22.55,0,0,0,9.8,8.27,19.56,19.56,0,0,1,.38-5.21l2.91-12.31a7.85,7.85,0,0,1-.74-3.59,6.75,6.75,0,0,1,1.27-4.18,3.77,3.77,0,0,1,3.09-1.68,2.76,2.76,0,0,1,2.27,1,3.72,3.72,0,0,1,.79,2.44,9.15,9.15,0,0,1-.34,2.22q-0.34,1.31-.88,3t-0.78,2.75a3.34,3.34,0,0,0,.68,3.08,3.6,3.6,0,0,0,2.89,1.28q3.15,0,5.17-3.5a16.81,16.81,0,0,0,2-8.51,8.35,8.35,0,0,0-2.49-6.27,9.54,9.54,0,0,0-6.93-2.41A10.72,10.72,0,0,0,12.07,22.68a6.7,6.7,0,0,0,1.5,4.45,1.35,1.35,0,0,1,.32,1.27c0,0.12-.12.41-0.24,0.88s-0.2.77-.23,0.91a0.73,0.73,0,0,1-1.12.59,6.64,6.64,0,0,1-3.44-3.27,11.78,11.78,0,0,1-1.18-5.39,12.86,12.86,0,0,1,.63-3.95,13.45,13.45,0,0,1,2-3.81,15.4,15.4,0,0,1,3.21-3.25A15.06,15.06,0,0,1,18,8.84,18.9,18.9,0,0,1,23.81,8a15.16,15.16,0,0,1,7.51,1.85,13.25,13.25,0,0,1,5.08,4.8,12.12,12.12,0,0,1,1.75,6.3,19.78,19.78,0,0,1-1.53,7.95,13,13,0,0,1-4.33,5.55,10.6,10.6,0,0,1-6.36,2,7,7,0,0,1-3.36-.84,4.91,4.91,0,0,1-2.15-2q-1.33,5.21-1.59,6.21a18.16,18.16,0,0,1-2.3,4.83,22.57,22.57,0,0,0,26-10.32,22.12,22.12,0,0,0,3-11.35,22.13,22.13,0,0,0-3-11.35h0Zm0,0"/></svg>