<svg id="Layer_2" data-name="Layer 2" xmlns="http://www.w3.org/2000/svg" viewBox="0 0 13 14"><title>portal2</title><path d="M2.12,13.77a2,2,0,0,1-2-2V2.2a2,2,0,0,1,2-2A2,2,0,0,1,4,1.39l7,0a2,2,0,0,1,1.95,1.95v7.14a2.07,2.07,0,0,1-2.07,2.07H4a2.07,2.07,0,0,1-1.85,1.19ZM2.12.55A1.65,1.65,0,0,0,.46,2.2v9.6a1.65,1.65,0,0,0,1.65,1.65A1.66,1.66,0,0,0,3.81,11.8V2.2A1.65,1.65,0,0,0,2.15.55Zm2,11.71h6.66a1.75,1.75,0,0,0,1.75-1.75V3.37a1.63,1.63,0,0,0-1.62-1.62H4.13ZM10,10.44a.64.64,0,1,1,.64-.64A.64.64,0,0,1,10,10.44Zm0-1a.32.32,0,1,0,.32.32A.32.32,0,0,0,10,9.48Zm-1.72,1A.64.64,0,1,1,9,9.8.64.64,0,0,1,8.33,10.44Zm0-1a.32.32,0,1,0,.32.32A.32.32,0,0,0,8.33,9.48Zm-1.72,1a.64.64,0,1,1,.64-.64A.64.64,0,0,1,6.62,10.44Zm0-1a.32.32,0,1,0,.32.32A.32.32,0,0,0,6.62,9.48ZM10,8.73a.64.64,0,1,1,.64-.64A.64.64,0,0,1,10,8.73Zm0-1a.32.32,0,1,0,.32.32A.32.32,0,0,0,10,7.78Zm-1.72,1A.64.64,0,1,1,9,8.09.64.64,0,0,1,8.33,8.73Zm0-1a.32.32,0,1,0,.32.32A.32.32,0,0,0,8.33,7.78Zm-1.72,1a.64.64,0,1,1,.64-.64A.64.64,0,0,1,6.62,8.73Zm0-1a.32.32,0,1,0,.32.32A.32.32,0,0,0,6.62,7.78ZM10,7a.64.64,0,1,1,.64-.64A.64.64,0,0,1,10,7Zm0-1a.32.32,0,1,0,.32.32A.32.32,0,0,0,10,6.07ZM8.33,7A.64.64,0,1,1,9,6.39.64.64,0,0,1,8.33,7Zm0-1a.32.32,0,1,0,.32.32A.32.32,0,0,0,8.33,6.07ZM6.62,7a.64.64,0,1,1,.64-.64A.64.64,0,0,1,6.62,7Zm0-1a.32.32,0,1,0,.32.32A.32.32,0,0,0,6.62,6.07ZM5.13,4.3A.16.16,0,0,1,5,4.14V2.79a.16.16,0,0,1,.16-.16h5.66a.9.9,0,0,1,.9.9v.6a.16.16,0,0,1-.16.16ZM5.29,4h6.08V3.53A.58.58,0,0,0,10.79,3H5.29Z"/></svg>