<svg id="Layer_2" data-name="Layer 2" xmlns="http://www.w3.org/2000/svg" viewBox="0 0 58.3 46"><defs><style>.cls-1{fill:#964c36;}</style></defs><title>portal</title><path class="cls-1" d="M19.71,45.83a31.56,31.56,0,0,1-16.2-4.53L0,39.2l4.11,0.07,0.68,0a24.68,24.68,0,0,0,11.65-3.13,12.57,12.57,0,0,1-8.31-8L7.46,26.24,9.23,26.7a12.49,12.49,0,0,1-4.87-9.22L4.26,15.7l1.63,0.71q0.45,0.2.91,0.35A12.45,12.45,0,0,1,6,3.16L6.81,1.69,7.83,3A27.7,27.7,0,0,0,28,13.77c0-.49-0.08-0.95-0.08-1.09a11.87,11.87,0,0,1,12-12,12,12,0,0,1,8.41,3.45,23.24,23.24,0,0,0,5.88-2.47l2.59-1.6L55.77,3a12,12,0,0,1-2.1,3.77c0.5-.16,1-0.35,1.5-0.57l3.12-1.52L57,7.45a12,12,0,0,1-5.12,5.46c0.49,7.69-2.67,16.27-8.36,22.57A31.13,31.13,0,0,1,19.91,45.83h-0.2ZM8.16,41.23"/></svg>